<svg width="231" height="195" viewBox="0 0 231 195" fill="none" xmlns="http://www.w3.org/2000/svg">
<ellipse cx="115.194" cy="74.8062" rx="74.1938" ry="74.1938" fill="black"/>
<ellipse cx="115.574" cy="74.4257" rx="57.0722" ry="57.0722" fill="white"/>
<path d="M114.49 120.716L73.7222 14.429L155.286 14.429L114.49 120.716Z" fill="black"/>
<path d="M2.48875 185.157V184.147L12.9516 179.421V180.646L4.04637 184.652L12.9516 188.638V189.862L2.48875 185.157ZM46.3246 184.631C46.3246 185.956 46.0847 187.102 45.6049 188.068C45.1251 189.028 44.4662 189.823 43.6283 190.453C42.7904 191.076 41.8022 191.538 40.6635 191.839C39.5248 192.14 38.2966 192.29 36.9789 192.29C35.654 192.29 34.4187 192.14 33.2729 191.839C32.127 191.538 31.1316 191.076 30.2865 190.453C29.4415 189.823 28.779 189.028 28.2992 188.068C27.8194 187.102 27.5795 185.956 27.5795 184.631C27.5795 183.75 27.6905 182.951 27.9125 182.235C28.1345 181.512 28.446 180.868 28.8471 180.302C29.2481 179.729 29.7315 179.235 30.2973 178.819C30.8702 178.404 31.504 178.06 32.1986 177.788C32.9005 177.509 33.6524 177.305 34.4545 177.176C35.2566 177.04 36.0981 176.972 36.9789 176.972C38.2966 176.972 39.5248 177.122 40.6635 177.423C41.8022 177.724 42.7904 178.189 43.6283 178.819C44.4662 179.442 45.1251 180.237 45.6049 181.204C46.0847 182.164 46.3246 183.306 46.3246 184.631ZM44.9389 184.631C44.9389 183.585 44.767 182.661 44.4232 181.859C44.0867 181.057 43.5854 180.384 42.9193 179.84C42.2533 179.288 41.4226 178.873 40.4272 178.594C39.4389 178.307 38.2895 178.164 36.9789 178.164C35.6684 178.164 34.5118 178.307 33.5092 178.594C32.5137 178.88 31.6794 179.299 31.0063 179.851C30.3331 180.395 29.8246 181.072 29.4809 181.881C29.1371 182.683 28.9652 183.6 28.9652 184.631C28.9652 185.676 29.1371 186.6 29.4809 187.402C29.8246 188.204 30.3331 188.881 31.0063 189.433C31.6794 189.977 32.5137 190.392 33.5092 190.679C34.5118 190.958 35.6684 191.098 36.9789 191.098C38.2895 191.098 39.4389 190.958 40.4272 190.679C41.4226 190.392 42.2533 189.977 42.9193 189.433C43.5854 188.881 44.0867 188.204 44.4232 187.402C44.767 186.6 44.9389 185.676 44.9389 184.631ZM59.0795 192H57.0707L49.7015 177.24H51.2054L58.1127 191.076L65.0199 177.24H66.5131L59.0795 192ZM71.1361 192V177.24H83.4359V178.497H72.597V183.578H82.888V184.824H72.597V190.743H83.597V192H71.1361ZM90.6263 185.684V192H89.2835V177.24H96.6311C97.7555 177.24 98.7187 177.33 99.5208 177.509C100.323 177.681 100.978 177.946 101.487 178.304C102.002 178.655 102.378 179.095 102.615 179.625C102.851 180.155 102.969 180.774 102.969 181.483C102.969 182.586 102.679 183.471 102.099 184.137C101.519 184.796 100.584 185.247 99.2952 185.49L104.333 192H102.647L97.888 185.641C97.6874 185.655 97.4833 185.666 97.2757 185.673C97.068 185.68 96.8531 185.684 96.6311 185.684H90.6263ZM101.583 181.483C101.583 180.853 101.472 180.345 101.25 179.958C101.028 179.564 100.667 179.26 100.165 179.045C99.664 178.83 99.0052 178.687 98.1888 178.615C97.3795 178.536 96.3841 178.497 95.2024 178.497H90.6263V184.427H95.1595C96.3411 184.427 97.3401 184.395 98.1565 184.33C98.9729 184.258 99.6354 184.119 100.144 183.911C100.652 183.696 101.018 183.399 101.24 183.02C101.469 182.633 101.583 182.121 101.583 181.483ZM124.071 190.829C123.555 191.044 123.043 191.241 122.534 191.42C122.033 191.599 121.51 191.753 120.966 191.882C120.422 192.011 119.849 192.111 119.247 192.183C118.646 192.254 117.99 192.29 117.281 192.29C116.408 192.29 115.566 192.218 114.757 192.075C113.955 191.932 113.207 191.717 112.512 191.431C111.817 191.144 111.187 190.79 110.621 190.367C110.056 189.938 109.569 189.44 109.16 188.874C108.759 188.308 108.448 187.671 108.226 186.962C108.011 186.253 107.904 185.476 107.904 184.631C107.904 183.786 108.011 183.009 108.226 182.3C108.448 181.591 108.759 180.953 109.16 180.388C109.569 179.822 110.056 179.328 110.621 178.905C111.187 178.476 111.817 178.118 112.512 177.831C113.207 177.545 113.955 177.33 114.757 177.187C115.559 177.043 116.401 176.972 117.281 176.972C117.99 176.972 118.646 177.007 119.247 177.079C119.849 177.151 120.422 177.251 120.966 177.38C121.51 177.509 122.033 177.663 122.534 177.842C123.043 178.014 123.555 178.207 124.071 178.422V180.033C123.662 179.775 123.225 179.532 122.76 179.303C122.295 179.074 121.79 178.873 121.245 178.701C120.708 178.529 120.132 178.393 119.516 178.293C118.9 178.193 118.241 178.143 117.539 178.143C116.121 178.143 114.893 178.297 113.855 178.604C112.816 178.912 111.957 179.349 111.277 179.915C110.603 180.474 110.102 181.154 109.773 181.956C109.45 182.751 109.289 183.643 109.289 184.631C109.289 185.619 109.45 186.511 109.773 187.306C110.102 188.101 110.603 188.781 111.277 189.347C111.957 189.905 112.816 190.339 113.855 190.646C114.893 190.947 116.121 191.098 117.539 191.098C118.241 191.098 118.904 191.048 119.527 190.947C120.157 190.847 120.744 190.711 121.288 190.539C121.84 190.367 122.345 190.17 122.803 189.948C123.268 189.719 123.691 189.479 124.071 189.229V190.829ZM129.596 192V177.24H130.939V190.743H141.724V192H129.596ZM164.276 184.631C164.276 185.956 164.036 187.102 163.556 188.068C163.076 189.028 162.417 189.823 161.579 190.453C160.741 191.076 159.753 191.538 158.614 191.839C157.476 192.14 156.248 192.29 154.93 192.29C153.605 192.29 152.37 192.14 151.224 191.839C150.078 191.538 149.083 191.076 148.237 190.453C147.392 189.823 146.73 189.028 146.25 188.068C145.77 187.102 145.53 185.956 145.53 184.631C145.53 183.75 145.641 182.951 145.863 182.235C146.085 181.512 146.397 180.868 146.798 180.302C147.199 179.729 147.682 179.235 148.248 178.819C148.821 178.404 149.455 178.06 150.15 177.788C150.851 177.509 151.603 177.305 152.405 177.176C153.208 177.04 154.049 176.972 154.93 176.972C156.248 176.972 157.476 177.122 158.614 177.423C159.753 177.724 160.741 178.189 161.579 178.819C162.417 179.442 163.076 180.237 163.556 181.204C164.036 182.164 164.276 183.306 164.276 184.631ZM162.89 184.631C162.89 183.585 162.718 182.661 162.374 181.859C162.038 181.057 161.536 180.384 160.87 179.84C160.204 179.288 159.374 178.873 158.378 178.594C157.39 178.307 156.24 178.164 154.93 178.164C153.619 178.164 152.463 178.307 151.46 178.594C150.465 178.88 149.63 179.299 148.957 179.851C148.284 180.395 147.776 181.072 147.432 181.881C147.088 182.683 146.916 183.6 146.916 184.631C146.916 185.676 147.088 186.6 147.432 187.402C147.776 188.204 148.284 188.881 148.957 189.433C149.63 189.977 150.465 190.392 151.46 190.679C152.463 190.958 153.619 191.098 154.93 191.098C156.24 191.098 157.39 190.958 158.378 190.679C159.374 190.392 160.204 189.977 160.87 189.433C161.536 188.881 162.038 188.204 162.374 187.402C162.718 186.6 162.89 185.676 162.89 184.631ZM184.894 190.829C184.378 191.044 183.866 191.241 183.358 191.42C182.856 191.599 182.333 191.753 181.789 191.882C181.245 192.011 180.672 192.111 180.07 192.183C179.469 192.254 178.814 192.29 178.105 192.29C177.231 192.29 176.389 192.218 175.58 192.075C174.778 191.932 174.03 191.717 173.335 191.431C172.64 191.144 172.01 190.79 171.444 190.367C170.879 189.938 170.392 189.44 169.984 188.874C169.582 188.308 169.271 187.671 169.049 186.962C168.834 186.253 168.727 185.476 168.727 184.631C168.727 183.786 168.834 183.009 169.049 182.3C169.271 181.591 169.582 180.953 169.984 180.388C170.392 179.822 170.879 179.328 171.444 178.905C172.01 178.476 172.64 178.118 173.335 177.831C174.03 177.545 174.778 177.33 175.58 177.187C176.382 177.043 177.224 176.972 178.105 176.972C178.814 176.972 179.469 177.007 180.07 177.079C180.672 177.151 181.245 177.251 181.789 177.38C182.333 177.509 182.856 177.663 183.358 177.842C183.866 178.014 184.378 178.207 184.894 178.422V180.033C184.485 179.775 184.049 179.532 183.583 179.303C183.118 179.074 182.613 178.873 182.068 178.701C181.531 178.529 180.955 178.393 180.339 178.293C179.723 178.193 179.064 178.143 178.362 178.143C176.944 178.143 175.716 178.297 174.678 178.604C173.639 178.912 172.78 179.349 172.1 179.915C171.427 180.474 170.925 181.154 170.596 181.956C170.274 182.751 170.112 183.643 170.112 184.631C170.112 185.619 170.274 186.511 170.596 187.306C170.925 188.101 171.427 188.781 172.1 189.347C172.78 189.905 173.639 190.339 174.678 190.646C175.716 190.947 176.944 191.098 178.362 191.098C179.064 191.098 179.727 191.048 180.35 190.947C180.98 190.847 181.567 190.711 182.111 190.539C182.663 190.367 183.168 190.17 183.626 189.948C184.092 189.719 184.514 189.479 184.894 189.229V190.829ZM191.783 184.19L202.762 177.24H204.631L193.814 184.319L205.297 192H203.009L191.783 184.48V192H190.419V177.24H191.783V184.19ZM229.335 185.157L218.861 189.862V188.638L227.767 184.652L218.861 180.646V179.421L229.335 184.147V185.157Z" fill="black"/>
</svg>
